<svg width="20" height="20" viewBox="0 0 20 20" fill="none" xmlns="http://www.w3.org/2000/svg">
<g clip-path="url(#clip0_139_462)">
<path d="M3.75 8.33332C3.75 5.19062 3.75 3.61928 4.72631 2.64296C5.70262 1.66666 7.27397 1.66666 10.4167 1.66666H11.6667C14.8093 1.66666 16.3808 1.66666 17.357 2.64296C18.3333 3.61928 18.3333 5.19062 18.3333 8.33332V11.6667C18.3333 14.8093 18.3333 16.3807 17.357 17.357C16.3808 18.3333 14.8093 18.3333 11.6667 18.3333H10.4167C7.27397 18.3333 5.70262 18.3333 4.72631 17.357C3.75 16.3807 3.75 14.8093 3.75 11.6667V8.33332Z" stroke="#282828" stroke-width="1.5"/>
<path d="M3.75008 5H1.66675M3.75008 10H1.66675M3.75008 15H1.66675" stroke="#282828" stroke-width="1.5" stroke-linecap="round" stroke-linejoin="round"/>
<path d="M12.7289 7.07716C12.7289 7.99761 11.9828 8.74382 11.0623 8.74382C10.1419 8.74382 9.39575 7.99761 9.39575 7.07716C9.39575 6.15672 10.1419 5.41055 11.0623 5.41055C11.9828 5.41055 12.7289 6.15672 12.7289 7.07716Z" stroke="#282828" stroke-width="1.5" stroke-linecap="round" stroke-linejoin="round"/>
<path d="M7.7666 13.0968C8.64858 11.739 10.0492 11.2302 11.0625 11.2312C12.0759 11.2323 13.4354 11.739 14.3173 13.0968C14.3744 13.1846 14.3901 13.2927 14.3387 13.3839C14.1324 13.7497 13.492 14.4754 13.0294 14.5247C12.498 14.5812 11.1077 14.5891 11.0636 14.5893C11.0194 14.5891 9.58625 14.5812 9.0545 14.5247C8.592 14.4754 7.95158 13.7497 7.74532 13.3839C7.69386 13.2927 7.70957 13.1846 7.7666 13.0968Z" stroke="#282828" stroke-width="1.5" stroke-linecap="round" stroke-linejoin="round"/>
</g>
<defs>
<clipPath id="clip0_139_462">
<rect width="20" height="20" fill="white"/>
</clipPath>
</defs>
</svg>
