<svg width="20" height="20" viewBox="0 0 20 20" fill="none" xmlns="http://www.w3.org/2000/svg">
<path d="M13.3333 3.33478C15.1459 3.34487 16.1274 3.42524 16.7678 4.06556C17.5 4.7978 17.5 5.97631 17.5 8.33333V13.3333C17.5 15.6904 17.5 16.8689 16.7678 17.6011C16.0355 18.3333 14.857 18.3333 12.5 18.3333H7.5C5.14298 18.3333 3.96447 18.3333 3.23223 17.6011C2.5 16.8689 2.5 15.6904 2.5 13.3333V8.33333C2.5 5.97631 2.5 4.7978 3.23223 4.06556C3.87255 3.42524 4.85414 3.34487 6.66667 3.33478" stroke="#282828" stroke-width="1.5"/>
<path d="M8.75 11.6667L14.1667 11.6667" stroke="#282828" stroke-width="1.5" stroke-linecap="round"/>
<path d="M5.83337 11.6667H6.25004" stroke="#282828" stroke-width="1.5" stroke-linecap="round"/>
<path d="M5.83337 8.75H6.25004" stroke="#282828" stroke-width="1.5" stroke-linecap="round"/>
<path d="M5.83337 14.5833H6.25004" stroke="#282828" stroke-width="1.5" stroke-linecap="round"/>
<path d="M8.75 8.75H14.1667" stroke="#282828" stroke-width="1.5" stroke-linecap="round"/>
<path d="M8.75 14.5833H14.1667" stroke="#282828" stroke-width="1.5" stroke-linecap="round"/>
<path d="M6.66663 2.91669C6.66663 2.22633 7.22627 1.66669 7.91663 1.66669H12.0833C12.7736 1.66669 13.3333 2.22633 13.3333 2.91669V3.75002C13.3333 4.44038 12.7736 5.00002 12.0833 5.00002H7.91663C7.22627 5.00002 6.66663 4.44038 6.66663 3.75002V2.91669Z" stroke="#282828" stroke-width="1.5"/>
</svg>
