<svg width="64" height="36" viewBox="0 0 64 36" fill="none" xmlns="http://www.w3.org/2000/svg">
<path d="M4 0.25H31.75V35.75H4C1.92893 35.75 0.25 34.0711 0.25 32V4C0.25 1.92893 1.92893 0.25 4 0.25Z" stroke="#D2C5E3" stroke-width="0.5"/>
<path d="M7.70999 22.29C7.61488 22.199 7.50274 22.1276 7.37999 22.08C7.13653 21.98 6.86345 21.98 6.61999 22.08C6.49724 22.1276 6.38509 22.199 6.28999 22.29C6.19895 22.3851 6.12758 22.4972 6.07999 22.62C6.00341 22.8021 5.98249 23.0028 6.01986 23.1968C6.05723 23.3908 6.15123 23.5694 6.28999 23.71C6.38776 23.7976 6.49924 23.8685 6.61999 23.92C6.73969 23.9729 6.86912 24.0002 6.99999 24.0002C7.13086 24.0002 7.26029 23.9729 7.37999 23.92C7.50073 23.8685 7.61221 23.7976 7.70999 23.71C7.84875 23.5694 7.94274 23.3908 7.98012 23.1968C8.01749 23.0028 7.99657 22.8021 7.91999 22.62C7.87239 22.4972 7.80103 22.3851 7.70999 22.29ZM11 14H25C25.2652 14 25.5196 13.8946 25.7071 13.7071C25.8946 13.5196 26 13.2652 26 13C26 12.7348 25.8946 12.4804 25.7071 12.2929C25.5196 12.1054 25.2652 12 25 12H11C10.7348 12 10.4804 12.1054 10.2929 12.2929C10.1053 12.4804 9.99999 12.7348 9.99999 13C9.99999 13.2652 10.1053 13.5196 10.2929 13.7071C10.4804 13.8946 10.7348 14 11 14ZM7.70999 17.29C7.56936 17.1512 7.39079 17.0572 7.1968 17.0199C7.00281 16.9825 6.8021 17.0034 6.61999 17.08C6.49924 17.1315 6.38776 17.2024 6.28999 17.29C6.19895 17.3851 6.12758 17.4972 6.07999 17.62C6.02708 17.7397 5.99976 17.8691 5.99976 18C5.99976 18.1309 6.02708 18.2603 6.07999 18.38C6.13147 18.5007 6.20241 18.6122 6.28999 18.71C6.38776 18.7976 6.49924 18.8685 6.61999 18.92C6.73969 18.9729 6.86912 19.0002 6.99999 19.0002C7.13086 19.0002 7.26029 18.9729 7.37999 18.92C7.50073 18.8685 7.61221 18.7976 7.70999 18.71C7.79757 18.6122 7.86851 18.5007 7.91999 18.38C7.97289 18.2603 8.00022 18.1309 8.00022 18C8.00022 17.8691 7.97289 17.7397 7.91999 17.62C7.87239 17.4972 7.80103 17.3851 7.70999 17.29ZM25 17H11C10.7348 17 10.4804 17.1054 10.2929 17.2929C10.1053 17.4804 9.99999 17.7348 9.99999 18C9.99999 18.2652 10.1053 18.5196 10.2929 18.7071C10.4804 18.8946 10.7348 19 11 19H25C25.2652 19 25.5196 18.8946 25.7071 18.7071C25.8946 18.5196 26 18.2652 26 18C26 17.7348 25.8946 17.4804 25.7071 17.2929C25.5196 17.1054 25.2652 17 25 17ZM7.70999 12.29C7.61488 12.199 7.50274 12.1276 7.37999 12.08C7.19788 12.0034 6.99716 11.9825 6.80317 12.0199C6.60919 12.0572 6.43061 12.1512 6.28999 12.29C6.20241 12.3878 6.13147 12.4993 6.07999 12.62C6.02708 12.7397 5.99976 12.8691 5.99976 13C5.99976 13.1309 6.02708 13.2603 6.07999 13.38C6.13147 13.5007 6.20241 13.6122 6.28999 13.71C6.38776 13.7976 6.49924 13.8685 6.61999 13.92C6.8021 13.9966 7.00281 14.0175 7.1968 13.9801C7.39079 13.9428 7.56936 13.8488 7.70999 13.71C7.79757 13.6122 7.86851 13.5007 7.91999 13.38C7.97289 13.2603 8.00022 13.1309 8.00022 13C8.00022 12.8691 7.97289 12.7397 7.91999 12.62C7.86851 12.4993 7.79757 12.3878 7.70999 12.29ZM25 22H11C10.7348 22 10.4804 22.1054 10.2929 22.2929C10.1053 22.4804 9.99999 22.7348 9.99999 23C9.99999 23.2652 10.1053 23.5196 10.2929 23.7071C10.4804 23.8946 10.7348 24 11 24H25C25.2652 24 25.5196 23.8946 25.7071 23.7071C25.8946 23.5196 26 23.2652 26 23C26 22.7348 25.8946 22.4804 25.7071 22.2929C25.5196 22.1054 25.2652 22 25 22Z" fill="#7A53AD"/>
<path d="M60 0.25C62.0711 0.25 63.75 1.92893 63.75 4V32C63.75 34.0711 62.0711 35.75 60 35.75H32.25V0.25H60Z" fill="#F4F1F8"/>
<path d="M60 0.25C62.0711 0.25 63.75 1.92893 63.75 4V32C63.75 34.0711 62.0711 35.75 60 35.75H32.25V0.25H60Z" stroke="#A68CC8" stroke-width="0.5"/>
<g filter="url(#filter0_d_60_30887)">
<path d="M41.5 12C41.6326 12 41.7598 11.9473 41.8536 11.8536C41.9473 11.7598 42 11.6326 42 11.5C42 11.3674 41.9473 11.2402 41.8536 11.1464C41.7598 11.0527 41.6326 11 41.5 11C41.3674 11 41.2402 11.0527 41.1464 11.1464C41.0527 11.2402 41 11.3674 41 11.5C41 11.6326 41.0527 11.7598 41.1464 11.8536C41.2402 11.9473 41.3674 12 41.5 12ZM41.5 18.5C41.6326 18.5 41.7598 18.4473 41.8536 18.3536C41.9473 18.2598 42 18.1326 42 18C42 17.8674 41.9473 17.7402 41.8536 17.6464C41.7598 17.5527 41.6326 17.5 41.5 17.5C41.3674 17.5 41.2402 17.5527 41.1464 17.6464C41.0527 17.7402 41 17.8674 41 18C41 18.1326 41.0527 18.2598 41.1464 18.3536C41.2402 18.4473 41.3674 18.5 41.5 18.5ZM41.5 25C41.6326 25 41.7598 24.9473 41.8536 24.8536C41.9473 24.7598 42 24.6326 42 24.5C42 24.3674 41.9473 24.2402 41.8536 24.1464C41.7598 24.0527 41.6326 24 41.5 24C41.3674 24 41.2402 24.0527 41.1464 24.1464C41.0527 24.2402 41 24.3674 41 24.5C41 24.6326 41.0527 24.7598 41.1464 24.8536C41.2402 24.9473 41.3674 25 41.5 25ZM48 12C48.1326 12 48.2598 11.9473 48.3536 11.8536C48.4473 11.7598 48.5 11.6326 48.5 11.5C48.5 11.3674 48.4473 11.2402 48.3536 11.1464C48.2598 11.0527 48.1326 11 48 11C47.8674 11 47.7402 11.0527 47.6464 11.1464C47.5527 11.2402 47.5 11.3674 47.5 11.5C47.5 11.6326 47.5527 11.7598 47.6464 11.8536C47.7402 11.9473 47.8674 12 48 12ZM48 18.5C48.1326 18.5 48.2598 18.4473 48.3536 18.3536C48.4473 18.2598 48.5 18.1326 48.5 18C48.5 17.8674 48.4473 17.7402 48.3536 17.6464C48.2598 17.5527 48.1326 17.5 48 17.5C47.8674 17.5 47.7402 17.5527 47.6464 17.6464C47.5527 17.7402 47.5 17.8674 47.5 18C47.5 18.1326 47.5527 18.2598 47.6464 18.3536C47.7402 18.4473 47.8674 18.5 48 18.5ZM48 25C48.1326 25 48.2598 24.9473 48.3536 24.8536C48.4473 24.7598 48.5 24.6326 48.5 24.5C48.5 24.3674 48.4473 24.2402 48.3536 24.1464C48.2598 24.0527 48.1326 24 48 24C47.8674 24 47.7402 24.0527 47.6464 24.1464C47.5527 24.2402 47.5 24.3674 47.5 24.5C47.5 24.6326 47.5527 24.7598 47.6464 24.8536C47.7402 24.9473 47.8674 25 48 25ZM54.5 12C54.6326 12 54.7598 11.9473 54.8536 11.8536C54.9473 11.7598 55 11.6326 55 11.5C55 11.3674 54.9473 11.2402 54.8536 11.1464C54.7598 11.0527 54.6326 11 54.5 11C54.3674 11 54.2402 11.0527 54.1464 11.1464C54.0527 11.2402 54 11.3674 54 11.5C54 11.6326 54.0527 11.7598 54.1464 11.8536C54.2402 11.9473 54.3674 12 54.5 12ZM54.5 18.5C54.6326 18.5 54.7598 18.4473 54.8536 18.3536C54.9473 18.2598 55 18.1326 55 18C55 17.8674 54.9473 17.7402 54.8536 17.6464C54.7598 17.5527 54.6326 17.5 54.5 17.5C54.3674 17.5 54.2402 17.5527 54.1464 17.6464C54.0527 17.7402 54 17.8674 54 18C54 18.1326 54.0527 18.2598 54.1464 18.3536C54.2402 18.4473 54.3674 18.5 54.5 18.5ZM54.5 25C54.6326 25 54.7598 24.9473 54.8536 24.8536C54.9473 24.7598 55 24.6326 55 24.5C55 24.3674 54.9473 24.2402 54.8536 24.1464C54.7598 24.0527 54.6326 24 54.5 24C54.3674 24 54.2402 24.0527 54.1464 24.1464C54.0527 24.2402 54 24.3674 54 24.5C54 24.6326 54.0527 24.7598 54.1464 24.8536C54.2402 24.9473 54.3674 25 54.5 25Z" fill="#7A53AD" stroke="#7A53AD" stroke-width="1.5" stroke-linecap="round" stroke-linejoin="round"/>
</g>
<defs>
<filter id="filter0_d_60_30887" x="35" y="5" width="26" height="26" filterUnits="userSpaceOnUse" color-interpolation-filters="sRGB">
<feFlood flood-opacity="0" result="BackgroundImageFix"/>
<feColorMatrix in="SourceAlpha" type="matrix" values="0 0 0 0 0 0 0 0 0 0 0 0 0 0 0 0 0 0 127 0" result="hardAlpha"/>
<feOffset/>
<feGaussianBlur stdDeviation="0.5"/>
<feComposite in2="hardAlpha" operator="out"/>
<feColorMatrix type="matrix" values="0 0 0 0 0 0 0 0 0 0 0 0 0 0 0 0 0 0 0.25 0"/>
<feBlend mode="normal" in2="BackgroundImageFix" result="effect1_dropShadow_60_30887"/>
<feBlend mode="normal" in="SourceGraphic" in2="effect1_dropShadow_60_30887" result="shape"/>
</filter>
</defs>
</svg>
