<svg width="20" height="20" viewBox="0 0 20 20" fill="none" xmlns="http://www.w3.org/2000/svg">
<path d="M3.33325 5.00001V15.8333C3.33325 17.2141 4.45254 18.3333 5.83325 18.3333H14.1666C15.5473 18.3333 16.6666 17.2141 16.6666 15.8333V7.50001C16.6666 6.11929 15.5473 5.00001 14.1666 5.00001H3.33325ZM3.33325 5.00001V4.16667" stroke="#282828" stroke-width="1.5"/>
<path d="M14.9999 5V5.75H15.7499V5H14.9999ZM13.0976 1.93844L12.9915 1.19597L13.0976 1.93844ZM4.09958 3.22386L3.99351 2.4814H3.99351L4.09958 3.22386ZM4.22581 5V5.75H14.9999V5V4.25H4.22581V5ZM14.9999 5H15.7499V3.58835H14.9999H14.2499V5H14.9999ZM13.0976 1.93844L12.9915 1.19597L3.99351 2.4814L4.09958 3.22386L4.20565 3.96632L13.2036 2.6809L13.0976 1.93844ZM4.09958 3.22386L3.99351 2.4814C3.18431 2.597 2.58325 3.29003 2.58325 4.10745H3.33325H4.08325C4.08325 4.0365 4.13542 3.97635 4.20565 3.96632L4.09958 3.22386ZM14.9999 3.58835H15.7499C15.7499 2.11769 14.4474 0.98799 12.9915 1.19597L13.0976 1.93844L13.2036 2.6809C13.7558 2.60201 14.2499 3.03051 14.2499 3.58835H14.9999ZM4.22581 5V4.25C4.14708 4.25 4.08325 4.18618 4.08325 4.10745H3.33325H2.58325C2.58325 5.0146 3.31865 5.75 4.22581 5.75V5Z" fill="#282828"/>
<path d="M6.66675 10H13.3334" stroke="#282828" stroke-width="1.5" stroke-linecap="round"/>
<path d="M6.66675 12.9167H11.2501" stroke="#282828" stroke-width="1.5" stroke-linecap="round"/>
</svg>
