<svg width="20" height="20" viewBox="0 0 20 20" fill="none" xmlns="http://www.w3.org/2000/svg">
<path d="M15.15 6.69944L15.5362 6.31324C16.1761 5.67336 17.2135 5.67336 17.8534 6.31324C18.4933 6.95311 18.4933 7.99056 17.8534 8.63043L17.4672 9.01663M15.15 6.69944C15.15 6.69944 15.1983 7.52011 15.9224 8.24423C16.6466 8.96836 17.4672 9.01663 17.4672 9.01663M15.15 6.69944L11.5995 10.25C11.359 10.4904 11.2388 10.6107 11.1354 10.7433C11.0134 10.8997 10.9088 11.0689 10.8235 11.2479C10.7511 11.3997 10.6974 11.561 10.5898 11.8837L10.2455 12.9167L10.1341 13.2509M17.4672 9.01663L13.9167 12.5672C13.6762 12.8076 13.556 12.9279 13.4234 13.0313C13.267 13.1533 13.0978 13.2579 12.9187 13.3432C12.767 13.4155 12.6056 13.4693 12.283 13.5768L11.25 13.9212L10.9158 14.0326M10.9158 14.0326L10.5816 14.144C10.4228 14.1969 10.2478 14.1556 10.1294 14.0372C10.0111 13.9189 9.96976 13.7438 10.0227 13.5851L10.1341 13.2509M10.9158 14.0326L10.1341 13.2509" stroke="#757575"/>
<path d="M6.66675 10.8333H8.75008" stroke="#757575" stroke-linecap="round"/>
<path d="M6.66675 7.5H12.0834" stroke="#757575" stroke-linecap="round"/>
<path d="M6.66675 14.1667H7.91675" stroke="#757575" stroke-width="1.5" stroke-linecap="round"/>
<path d="M16.5237 2.64298C15.5474 1.66667 13.976 1.66667 10.8333 1.66667H9.16667C6.02397 1.66667 4.45262 1.66667 3.47631 2.64298C2.5 3.61929 2.5 5.19064 2.5 8.33334V11.6667C2.5 14.8094 2.5 16.3807 3.47631 17.357C4.45262 18.3333 6.02397 18.3333 9.16667 18.3333H10.8333C13.976 18.3333 15.5474 18.3333 16.5237 17.357C17.3096 16.5711 17.4629 15.3996 17.4928 13.3333" stroke="#757575" stroke-width="1.5" stroke-linecap="round"/>
</svg>
