<svg width="34" height="34" viewBox="0 0 34 34" fill="none" xmlns="http://www.w3.org/2000/svg">
<g filter="url(#filter0_d_185_1097)">
<path d="M1 17C1 8.16344 8.16344 1 17 1C25.8366 1 33 8.16344 33 17C33 25.8366 25.8366 33 17 33C8.16344 33 1 25.8366 1 17Z" fill="white" shape-rendering="crispEdges"/>
<path d="M17 1.5C25.5604 1.5 32.5 8.43959 32.5 17C32.5 25.5604 25.5604 32.5 17 32.5C8.43959 32.5 1.5 25.5604 1.5 17C1.5 8.43959 8.43959 1.5 17 1.5Z" stroke="#EDEDED" shape-rendering="crispEdges"/>
<g clip-path="url(#clip0_185_1097)">
<path d="M17.7244 23.2585L18.2407 23.5641L17.7244 23.2585ZM18.0858 22.6479L17.5694 22.3423L18.0858 22.6479ZM15.9141 22.6479L15.3977 22.9535V22.9535L15.9141 22.6479ZM16.2755 23.2585L16.7918 22.9528L16.2755 23.2585ZM10.587 19.6089L11.1413 19.3793H11.1413L10.587 19.6089ZM14.193 21.661L14.1826 22.2609L14.193 21.661ZM12.391 21.4129L12.1614 21.9673L12.1614 21.9673L12.391 21.4129ZM23.4129 19.6089L23.9672 19.8386L23.9672 19.8385L23.4129 19.6089ZM19.8068 21.661L19.7965 21.0611H19.7965L19.8068 21.661ZM21.6089 21.4129L21.8385 21.9673H21.8385L21.6089 21.4129ZM22.0749 10.8245L21.7614 11.3361L22.0749 10.8245ZM23.1754 11.925L23.687 11.6115L23.687 11.6115L23.1754 11.925ZM11.9249 10.8245L11.6114 10.3129V10.3129L11.9249 10.8245ZM10.8245 11.925L10.3129 11.6115H10.3129L10.8245 11.925ZM15.2684 21.8066L15.5701 21.2879L15.5701 21.2879L15.2684 21.8066ZM17.7244 23.2585L18.2407 23.5641L18.6021 22.9535L18.0858 22.6479L17.5694 22.3423L17.208 22.9528L17.7244 23.2585ZM15.9141 22.6479L15.3977 22.9535L15.7591 23.5641L16.2755 23.2585L16.7918 22.9528L16.4304 22.3423L15.9141 22.6479ZM17.7244 23.2585L17.208 22.9528C17.1182 23.1045 16.8816 23.1045 16.7918 22.9528L16.2755 23.2585L15.7591 23.5641C16.3136 24.5008 17.6862 24.5008 18.2407 23.5641L17.7244 23.2585ZM15.9999 10.3333V10.9333H17.9999V10.3333V9.73333H15.9999V10.3333ZM23.6666 16H23.0666V16.6667H23.6666H24.2666V16H23.6666ZM10.3333 16.6667H10.9333V16H10.3333H9.73325V16.6667H10.3333ZM10.3333 16.6667H9.73325C9.73325 17.435 9.73293 18.0413 9.76636 18.5314C9.80016 19.0268 9.87046 19.447 10.0327 19.8385L10.587 19.6089L11.1413 19.3793C11.0498 19.1583 10.9932 18.884 10.9636 18.4497C10.9336 18.01 10.9333 17.4514 10.9333 16.6667H10.3333ZM14.193 21.661L14.2033 21.0611C13.3663 21.0466 12.9451 20.993 12.6206 20.8586L12.391 21.4129L12.1614 21.9673C12.7173 22.1975 13.3458 22.2465 14.1826 22.2609L14.193 21.661ZM10.587 19.6089L10.0327 19.8385C10.4319 20.8023 11.1976 21.568 12.1614 21.9673L12.391 21.4129L12.6206 20.8586C11.9508 20.5812 11.4187 20.0491 11.1413 19.3793L10.587 19.6089ZM23.6666 16.6667H23.0666C23.0666 17.4514 23.0663 18.01 23.0363 18.4497C23.0066 18.884 22.9501 19.1583 22.8585 19.3793L23.4129 19.6089L23.9672 19.8385C24.1294 19.447 24.1997 19.0268 24.2335 18.5314C24.2669 18.0413 24.2666 17.435 24.2666 16.6667H23.6666ZM19.8068 21.661L19.8172 22.2609C20.654 22.2465 21.2825 22.1975 21.8385 21.9673L21.6089 21.4129L21.3793 20.8586C21.0548 20.993 20.6335 21.0466 19.7965 21.0611L19.8068 21.661ZM23.4129 19.6089L22.8585 19.3793C22.5811 20.0491 22.049 20.5812 21.3793 20.8586L21.6089 21.4129L21.8385 21.9673C22.8023 21.568 23.568 20.8023 23.9672 19.8386L23.4129 19.6089ZM17.9999 10.3333V10.9333C19.1027 10.9333 19.8876 10.934 20.4984 10.992C21.1002 11.0493 21.4708 11.158 21.7614 11.3361L22.0749 10.8245L22.3884 10.3129C21.8775 9.99986 21.3017 9.863 20.612 9.79742C19.9312 9.7327 19.0794 9.73333 17.9999 9.73333V10.3333ZM23.6666 16H24.2666C24.2666 14.9205 24.2672 14.0687 24.2025 13.3879C24.1369 12.6982 24.0001 12.1224 23.687 11.6115L23.1754 11.925L22.6638 12.2385C22.8419 12.5292 22.9507 12.8997 23.0079 13.5015C23.066 14.1123 23.0666 14.8972 23.0666 16H23.6666ZM22.0749 10.8245L21.7614 11.3361C22.1292 11.5615 22.4384 11.8707 22.6638 12.2385L23.1754 11.925L23.687 11.6115C23.3626 11.0822 22.9177 10.6373 22.3884 10.3129L22.0749 10.8245ZM15.9999 10.3333V9.73333C14.9204 9.73333 14.0686 9.7327 13.3879 9.79742C12.6982 9.863 12.1223 9.99986 11.6114 10.3129L11.9249 10.8245L12.2384 11.3361C12.5291 11.158 12.8996 11.0493 13.5014 10.992C14.1122 10.934 14.8972 10.9333 15.9999 10.9333V10.3333ZM10.3333 16H10.9333C10.9333 14.8972 10.9339 14.1123 10.992 13.5015C11.0492 12.8997 11.1579 12.5292 11.336 12.2385L10.8245 11.925L10.3129 11.6115C9.99979 12.1224 9.86292 12.6982 9.79735 13.3879C9.73262 14.0687 9.73325 14.9205 9.73325 16H10.3333ZM11.9249 10.8245L11.6114 10.3129C11.0822 10.6373 10.6372 11.0822 10.3129 11.6115L10.8245 11.925L11.336 12.2385C11.5614 11.8707 11.8706 11.5615 12.2384 11.3361L11.9249 10.8245ZM15.9141 22.6479L16.4304 22.3423C16.296 22.1152 16.1744 21.9086 16.0554 21.7453C15.9291 21.5719 15.7798 21.4099 15.5701 21.2879L15.2684 21.8066L14.9668 22.3252C14.9822 22.3342 15.0156 22.356 15.0857 22.4521C15.1631 22.5584 15.2518 22.707 15.3977 22.9535L15.9141 22.6479ZM14.193 21.661L14.1826 22.2609C14.4772 22.266 14.6572 22.2697 14.7928 22.2847C14.9173 22.2985 14.9534 22.3174 14.9668 22.3252L15.2684 21.8066L15.5701 21.2879C15.3584 21.1648 15.1401 21.1158 14.9249 21.092C14.7208 21.0694 14.4756 21.0657 14.2033 21.0611L14.193 21.661ZM18.0858 22.6479L18.6021 22.9535C18.748 22.707 18.8367 22.5584 18.9141 22.4521C18.9842 22.356 19.0176 22.3342 19.033 22.3252L18.7314 21.8066L18.4297 21.2879C18.22 21.4099 18.0708 21.5719 17.9444 21.7453C17.8254 21.9086 17.7038 22.1152 17.5694 22.3423L18.0858 22.6479ZM19.8068 21.661L19.7965 21.0611C19.5242 21.0657 19.279 21.0694 19.0749 21.092C18.8597 21.1158 18.6414 21.1648 18.4297 21.2879L18.7314 21.8066L19.033 22.3252C19.0465 22.3174 19.0825 22.2985 19.207 22.2847C19.3426 22.2697 19.5226 22.266 19.8172 22.2609L19.8068 21.661Z" fill="#757575"/>
<path d="M14.3333 15H19.6666" stroke="#757575" stroke-width="1.2" stroke-linecap="round"/>
<path d="M14.3333 17.3333H17.9999" stroke="#757575" stroke-width="1.2" stroke-linecap="round"/>
</g>
</g>
<defs>
<filter id="filter0_d_185_1097" x="0" y="0" width="34" height="34" filterUnits="userSpaceOnUse" color-interpolation-filters="sRGB">
<feFlood flood-opacity="0" result="BackgroundImageFix"/>
<feColorMatrix in="SourceAlpha" type="matrix" values="0 0 0 0 0 0 0 0 0 0 0 0 0 0 0 0 0 0 127 0" result="hardAlpha"/>
<feOffset/>
<feGaussianBlur stdDeviation="0.5"/>
<feComposite in2="hardAlpha" operator="out"/>
<feColorMatrix type="matrix" values="0 0 0 0 0 0 0 0 0 0 0 0 0 0 0 0 0 0 0.25 0"/>
<feBlend mode="normal" in2="BackgroundImageFix" result="effect1_dropShadow_185_1097"/>
<feBlend mode="normal" in="SourceGraphic" in2="effect1_dropShadow_185_1097" result="shape"/>
</filter>
<clipPath id="clip0_185_1097">
<rect width="16" height="16" fill="white" transform="translate(9 9)"/>
</clipPath>
</defs>
</svg>
