<svg width="20" height="20" viewBox="0 0 20 20" fill="none" xmlns="http://www.w3.org/2000/svg">
<path d="M20 10C20 15.5228 15.5228 20 10 20C4.47715 20 0 15.5228 0 10C0 4.47715 4.47715 0 10 0C15.5228 0 20 4.47715 20 10ZM1.42695 10C1.42695 14.7348 5.26523 18.5731 10 18.5731C14.7348 18.5731 18.5731 14.7348 18.5731 10C18.5731 5.26523 14.7348 1.42695 10 1.42695C5.26523 1.42695 1.42695 5.26523 1.42695 10Z" fill="#7A53AD"/>
<path d="M9.92382 17.7209C10.9377 17.7198 11.9415 17.5191 12.8779 17.1301C13.8142 16.7411 14.6648 16.1715 15.381 15.4539C16.0972 14.7362 16.665 13.8844 17.052 12.9473C17.4391 12.0102 17.6378 11.006 17.6367 9.99206C17.6357 8.97814 17.4349 7.97435 17.0459 7.03802C16.657 6.10168 16.0874 5.25113 15.3697 4.53492C14.652 3.81871 13.8003 3.25087 12.8631 2.86383C11.926 2.47679 10.9218 2.27812 9.90789 2.27917L9.91585 10L9.92382 17.7209Z" fill="#7A53AD"/>
</svg>
