<svg width="34" height="34" viewBox="0 0 34 34" fill="none" xmlns="http://www.w3.org/2000/svg">
<g filter="url(#filter0_d_185_1086)">
<path d="M1 17C1 8.16344 8.16344 1 17 1C25.8366 1 33 8.16344 33 17C33 25.8366 25.8366 33 17 33C8.16344 33 1 25.8366 1 17Z" fill="white" shape-rendering="crispEdges"/>
<path d="M17 1.5C25.5604 1.5 32.5 8.43959 32.5 17C32.5 25.5604 25.5604 32.5 17 32.5C8.43959 32.5 1.5 25.5604 1.5 17C1.5 8.43959 8.43959 1.5 17 1.5Z" stroke="#EDEDED" shape-rendering="crispEdges"/>
<ellipse cx="16.9999" cy="13" rx="2.66667" ry="2.66667" stroke="#757575" stroke-width="1.2"/>
<path d="M22.3334 20.6667C22.3334 22.3235 22.3334 23.6667 17.0001 23.6667C11.6667 23.6667 11.6667 22.3235 11.6667 20.6667C11.6667 19.0098 14.0546 17.6667 17.0001 17.6667C19.9456 17.6667 22.3334 19.0098 22.3334 20.6667Z" stroke="#757575" stroke-width="1.2"/>
</g>
<defs>
<filter id="filter0_d_185_1086" x="0" y="0" width="34" height="34" filterUnits="userSpaceOnUse" color-interpolation-filters="sRGB">
<feFlood flood-opacity="0" result="BackgroundImageFix"/>
<feColorMatrix in="SourceAlpha" type="matrix" values="0 0 0 0 0 0 0 0 0 0 0 0 0 0 0 0 0 0 127 0" result="hardAlpha"/>
<feOffset/>
<feGaussianBlur stdDeviation="0.5"/>
<feComposite in2="hardAlpha" operator="out"/>
<feColorMatrix type="matrix" values="0 0 0 0 0 0 0 0 0 0 0 0 0 0 0 0 0 0 0.25 0"/>
<feBlend mode="normal" in2="BackgroundImageFix" result="effect1_dropShadow_185_1086"/>
<feBlend mode="normal" in="SourceGraphic" in2="effect1_dropShadow_185_1086" result="shape"/>
</filter>
</defs>
</svg>
