<svg width="17" height="20" viewBox="0 0 17 20" fill="none" xmlns="http://www.w3.org/2000/svg">
<path d="M21 10C21 15.5228 16.5228 20 11 20C5.47715 20 1 15.5228 1 10C1 4.47715 5.47715 0 11 0C16.5228 0 21 4.47715 21 10ZM1.9969 10C1.9969 14.9723 6.02773 19.0031 11 19.0031C15.9723 19.0031 20.0031 14.9723 20.0031 10C20.0031 5.02773 15.9723 0.996901 11 0.996901C6.02773 0.996901 1.9969 5.02773 1.9969 10Z" fill="#9E9E9E"/>
<circle cx="10.9156" cy="9.99999" r="10" transform="rotate(-90.4816 10.9156 9.99999)" fill="#7A53AD"/>
<path d="M7.66663 10.6L9.76186 13L15 7" stroke="white" stroke-width="1.5" stroke-linecap="round" stroke-linejoin="round"/>
</svg>
