<svg width="20" height="20" viewBox="0 0 20 20" fill="none" xmlns="http://www.w3.org/2000/svg">
<path d="M20 10C20 15.5228 15.5228 20 10 20C4.47715 20 0 15.5228 0 10C0 4.47715 4.47715 0 10 0C15.5228 0 20 4.47715 20 10ZM1.42695 10C1.42695 14.7348 5.26523 18.5731 10 18.5731C14.7348 18.5731 18.5731 14.7348 18.5731 10C18.5731 5.26523 14.7348 1.42695 10 1.42695C5.26523 1.42695 1.42695 5.26523 1.42695 10Z" fill="#7A53AD"/>
<path d="M17.4177 8.17492C17.0046 6.4767 16.0275 4.96889 14.6462 3.89805C13.2649 2.82721 11.5612 2.25671 9.81358 2.27982L9.91568 10L17.4177 8.17492Z" fill="#7A53AD"/>
</svg>
