<svg width="34" height="34" viewBox="0 0 34 34" fill="none" xmlns="http://www.w3.org/2000/svg">
<g filter="url(#filter0_d_185_1092)">
<path d="M1 17C1 8.16344 8.16344 1 17 1C25.8366 1 33 8.16344 33 17C33 25.8366 25.8366 33 17 33C8.16344 33 1 25.8366 1 17Z" fill="white" shape-rendering="crispEdges"/>
<path d="M17 1.5C25.5604 1.5 32.5 8.43959 32.5 17C32.5 25.5604 25.5604 32.5 17 32.5C8.43959 32.5 1.5 25.5604 1.5 17C1.5 8.43959 8.43959 1.5 17 1.5Z" stroke="#EDEDED" shape-rendering="crispEdges"/>
<path d="M23.6666 13C23.6666 12.2667 23.0666 11.6667 22.3333 11.6667H11.6666C10.9333 11.6667 10.3333 12.2667 10.3333 13M23.6666 13V21C23.6666 21.7333 23.0666 22.3333 22.3333 22.3333H11.6666C10.9333 22.3333 10.3333 21.7333 10.3333 21V13M23.6666 13L16.9999 17.6667L10.3333 13" stroke="#757575" stroke-width="1.2" stroke-linecap="round" stroke-linejoin="round"/>
</g>
<defs>
<filter id="filter0_d_185_1092" x="0" y="0" width="34" height="34" filterUnits="userSpaceOnUse" color-interpolation-filters="sRGB">
<feFlood flood-opacity="0" result="BackgroundImageFix"/>
<feColorMatrix in="SourceAlpha" type="matrix" values="0 0 0 0 0 0 0 0 0 0 0 0 0 0 0 0 0 0 127 0" result="hardAlpha"/>
<feOffset/>
<feGaussianBlur stdDeviation="0.5"/>
<feComposite in2="hardAlpha" operator="out"/>
<feColorMatrix type="matrix" values="0 0 0 0 0 0 0 0 0 0 0 0 0 0 0 0 0 0 0.25 0"/>
<feBlend mode="normal" in2="BackgroundImageFix" result="effect1_dropShadow_185_1092"/>
<feBlend mode="normal" in="SourceGraphic" in2="effect1_dropShadow_185_1092" result="shape"/>
</filter>
</defs>
</svg>
