<svg width="20" height="20" viewBox="0 0 20 20" fill="none" xmlns="http://www.w3.org/2000/svg">
<path d="M20 10C20 15.5228 15.5228 20 10 20C4.47715 20 0 15.5228 0 10C0 4.47715 4.47715 0 10 0C15.5228 0 20 4.47715 20 10ZM1.42695 10C1.42695 14.7348 5.26523 18.5731 10 18.5731C14.7348 18.5731 18.5731 14.7348 18.5731 10C18.5731 5.26523 14.7348 1.42695 10 1.42695C5.26523 1.42695 1.42695 5.26523 1.42695 10Z" fill="#7A53AD"/>
<path d="M2.2766 11.1199C2.49139 12.5851 3.12305 13.9577 4.09627 15.0739C5.06948 16.1902 6.34318 17.003 7.76551 17.4154C9.18783 17.8279 10.6988 17.8226 12.1182 17.4001C13.5376 16.9777 14.8055 16.156 15.7709 15.0329C16.7362 13.9099 17.3582 12.5329 17.5627 11.0662C17.7672 9.59946 17.5456 8.10486 16.9242 6.7606C16.3029 5.41633 15.308 4.27913 14.0583 3.48456C12.8086 2.69 11.3567 2.27161 9.87584 2.27928L9.91582 10L2.2766 11.1199Z" fill="#7A53AD"/>
</svg>
