<svg width="12" height="12" viewBox="0 0 12 12" fill="none" xmlns="http://www.w3.org/2000/svg">
<g clip-path="url(#clip0_150_1113)">
<path d="M11 6C11 6.65661 10.8707 7.30679 10.6194 7.91342C10.3681 8.52005 9.99983 9.07124 9.53553 9.53553C9.07124 9.99983 8.52004 10.3681 7.91342 10.6194C7.30679 10.8707 6.65661 11 6 11C5.34339 11 4.69321 10.8707 4.08658 10.6194C3.47995 10.3681 2.92876 9.99983 2.46447 9.53553C2.00017 9.07124 1.63188 8.52004 1.3806 7.91342C1.12933 7.30679 1 6.65661 1 6C1 5.34339 1.12933 4.69321 1.3806 4.08658C1.63188 3.47995 2.00017 2.92876 2.46447 2.46447C2.92876 2.00017 3.47996 1.63188 4.08658 1.3806C4.69321 1.12933 5.34339 1 6 1C6.65661 1 7.30679 1.12933 7.91342 1.3806C8.52005 1.63188 9.07124 2.00017 9.53553 2.46447C9.99983 2.92876 10.3681 3.47996 10.6194 4.08658C10.8707 4.69321 11 5.34339 11 6L11 6Z" stroke="#616161" stroke-width="1.2"/>
<path d="M8 6C8 6.65661 7.94827 7.30679 7.84776 7.91342C7.74725 8.52005 7.59993 9.07124 7.41421 9.53553C7.2285 9.99983 7.00802 10.3681 6.76537 10.6194C6.52272 10.8707 6.26264 11 6 11C5.73736 11 5.47728 10.8707 5.23463 10.6194C4.99198 10.3681 4.7715 9.99983 4.58579 9.53553C4.40007 9.07124 4.25275 8.52004 4.15224 7.91342C4.05173 7.30679 4 6.65661 4 6C4 5.34339 4.05173 4.69321 4.15224 4.08658C4.25275 3.47995 4.40007 2.92876 4.58579 2.46447C4.7715 2.00017 4.99198 1.63188 5.23463 1.3806C5.47728 1.12933 5.73736 1 6 1C6.26264 1 6.52272 1.12933 6.76537 1.3806C7.00802 1.63188 7.2285 2.00017 7.41421 2.46447C7.59993 2.92876 7.74725 3.47996 7.84776 4.08658C7.94827 4.69321 8 5.34339 8 6L8 6Z" stroke="#616161" stroke-width="1.2"/>
<path d="M1 6H11" stroke="#616161" stroke-width="1.5" stroke-linecap="round"/>
</g>
<defs>
<clipPath id="clip0_150_1113">
<rect width="12" height="12" fill="white"/>
</clipPath>
</defs>
</svg>
