<svg width="12" height="12" viewBox="0 0 12 12" fill="none" xmlns="http://www.w3.org/2000/svg">
<path d="M6.1467 4.875H5.775C5.35065 4.875 5.1387 4.875 5.00685 5.00685C4.875 5.1387 4.875 5.35065 4.875 5.775V9.6C4.875 10.0243 4.875 10.2363 5.00685 10.3682C5.1387 10.5 5.35065 10.5 5.775 10.5H6C6.42435 10.5 6.6363 10.5 6.76815 10.3682C6.9 10.2363 6.9 10.0243 6.9 9.6V8.025C6.9 7.27935 7.1376 6.675 7.8396 6.675C8.1906 6.675 8.475 6.9774 8.475 7.35V9.375C8.475 9.79935 8.475 10.0113 8.60685 10.1432C8.7387 10.275 8.95065 10.275 9.375 10.275H9.59955C10.0235 10.275 10.2358 10.275 10.3677 10.1432C10.4991 10.0113 10.4996 9.79935 10.4996 9.37545L10.5 6.9C10.5 5.7813 9.4362 4.875 8.38365 4.875C7.78425 4.875 7.24965 5.1684 6.9 5.62785C6.9 5.34435 6.9 5.2026 6.83835 5.0973C6.79936 5.03067 6.74388 4.97519 6.67725 4.9362C6.57195 4.87455 6.4302 4.87455 6.1467 4.87455M2.625 4.875H2.4C1.97565 4.875 1.7637 4.875 1.63185 5.00685C1.5 5.1387 1.5 5.35065 1.5 5.775V9.6C1.5 10.0243 1.5 10.2363 1.63185 10.3682C1.7637 10.5 1.97565 10.5 2.4 10.5H2.625C3.04935 10.5 3.2613 10.5 3.39315 10.3682C3.525 10.2363 3.525 10.0243 3.525 9.6V5.775C3.525 5.35065 3.525 5.1387 3.39315 5.00685C3.2613 4.875 3.04935 4.875 2.625 4.875ZM3.525 2.5125C3.525 2.78103 3.41833 3.03856 3.22845 3.22845C3.03856 3.41833 2.78103 3.525 2.5125 3.525C2.24397 3.525 1.98643 3.41833 1.79655 3.22845C1.60667 3.03856 1.5 2.78103 1.5 2.5125C1.5 2.24397 1.60667 1.98643 1.79655 1.79655C1.98643 1.60667 2.24397 1.5 2.5125 1.5C2.78103 1.5 3.03856 1.60667 3.22845 1.79655C3.41833 1.98643 3.525 2.24397 3.525 2.5125Z" stroke="#9E9E9E" stroke-linecap="round" stroke-linejoin="round"/>
</svg>
