<svg width="52" height="52" viewBox="0 0 52 52" fill="none" xmlns="http://www.w3.org/2000/svg">
<path d="M18.0833 21.4166C18.0833 19.8453 18.0833 19.0596 18.5714 18.5715C19.0596 18.0833 19.8452 18.0833 21.4166 18.0833C22.9879 18.0833 23.7736 18.0833 24.2618 18.5715C24.7499 19.0596 24.7499 19.8453 24.7499 21.4166C24.7499 22.988 24.7499 23.7737 24.2618 24.2618C23.7736 24.75 22.9879 24.75 21.4166 24.75C19.8452 24.75 19.0596 24.75 18.5714 24.2618C18.0833 23.7737 18.0833 22.988 18.0833 21.4166Z" stroke="#282828" stroke-width="1.5"/>
<path d="M27.25 30.5833C27.25 29.012 27.25 28.2263 27.7382 27.7382C28.2263 27.25 29.012 27.25 30.5833 27.25C32.1547 27.25 32.9404 27.25 33.4285 27.7382C33.9167 28.2263 33.9167 29.012 33.9167 30.5833C33.9167 32.1547 33.9167 32.9404 33.4285 33.4285C32.9404 33.9167 32.1547 33.9167 30.5833 33.9167C29.012 33.9167 28.2263 33.9167 27.7382 33.4285C27.25 32.9404 27.25 32.1547 27.25 30.5833Z" stroke="#282828" stroke-width="1.5"/>
<path d="M18.0833 30.5833C18.0833 29.012 18.0833 28.2263 18.5714 27.7382C19.0596 27.25 19.8452 27.25 21.4166 27.25C22.9879 27.25 23.7736 27.25 24.2618 27.7382C24.7499 28.2263 24.7499 29.012 24.7499 30.5833C24.7499 32.1547 24.7499 32.9404 24.2618 33.4285C23.7736 33.9167 22.9879 33.9167 21.4166 33.9167C19.8452 33.9167 19.0596 33.9167 18.5714 33.4285C18.0833 32.9404 18.0833 32.1547 18.0833 30.5833Z" stroke="#282828" stroke-width="1.5"/>
<path d="M27.25 21.4166C27.25 19.8453 27.25 19.0596 27.7382 18.5715C28.2263 18.0833 29.012 18.0833 30.5833 18.0833C32.1547 18.0833 32.9404 18.0833 33.4285 18.5715C33.9167 19.0596 33.9167 19.8453 33.9167 21.4166C33.9167 22.988 33.9167 23.7737 33.4285 24.2618C32.9404 24.75 32.1547 24.75 30.5833 24.75C29.012 24.75 28.2263 24.75 27.7382 24.2618C27.25 23.7737 27.25 22.988 27.25 21.4166Z" stroke="#282828" stroke-width="1.5"/>
</svg>
