<svg width="20" height="20" viewBox="0 0 20 20" fill="none" xmlns="http://www.w3.org/2000/svg">
<path d="M11.6666 2.0199C11.0148 1.79113 10.3136 1.66669 9.58329 1.66669C6.12007 1.66669 3.31257 4.4649 3.31257 7.91669C3.31249 8.80985 3.26056 9.64944 2.73797 10.4191C2.33899 10.9996 1.80047 11.5941 1.69156 12.308C1.51435 13.4697 2.30663 14.276 3.27667 14.6779C6.99563 16.2185 12.171 16.2185 15.8899 14.6779C16.86 14.276 17.6522 13.4697 17.475 12.308C17.3918 11.7624 17.0576 11.2865 16.7265 10.8334" stroke="#282828" stroke-width="1.5" stroke-linecap="round" stroke-linejoin="round"/>
<path d="M17.5 6.24998C17.5 4.63915 16.1941 3.33331 14.5833 3.33331C12.9725 3.33331 11.6666 4.63915 11.6666 6.24998C11.6666 7.86081 12.9725 9.16665 14.5833 9.16665C16.1941 9.16665 17.5 7.86081 17.5 6.24998Z" fill="#C23B3B" stroke="#C23B3B" stroke-width="1.5" stroke-linecap="round"/>
<path d="M6.25 15.8333C6.63208 17.271 7.97961 18.3333 9.58333 18.3333C11.1871 18.3333 12.5346 17.271 12.9167 15.8333" stroke="#282828" stroke-width="1.5" stroke-linecap="round" stroke-linejoin="round"/>
</svg>
