<svg width="20" height="20" viewBox="0 0 20 20" fill="none" xmlns="http://www.w3.org/2000/svg">
<g clip-path="url(#clip0_139_1302)">
<path d="M1.66675 10C1.66675 6.07163 1.66675 4.10744 2.88714 2.88705C4.10752 1.66666 6.07171 1.66666 10.0001 1.66666C13.9285 1.66666 15.8926 1.66666 17.113 2.88705C18.3334 4.10744 18.3334 6.07163 18.3334 10C18.3334 13.9284 18.3334 15.8926 17.113 17.1129C15.8926 18.3333 13.9285 18.3333 10.0001 18.3333C6.07171 18.3333 4.10752 18.3333 2.88714 17.1129C1.66675 15.8926 1.66675 13.9284 1.66675 10Z" stroke="#282828" stroke-width="1.5"/>
<path d="M8.4375 7.39584C8.4375 6.53289 9.13706 5.83334 10 5.83334C10.8629 5.83334 11.5625 6.53289 11.5625 7.39584C11.5625 7.96871 11.2542 8.46957 10.7945 8.74157C10.3984 8.97592 10 9.33143 10 9.79167V10.8333" stroke="#282828" stroke-width="1.5" stroke-linecap="round"/>
<mask id="path-3-inside-1_139_1302" fill="white">
<ellipse cx="10.0001" cy="13.3333" rx="0.833333" ry="0.833333"/>
</mask>
<ellipse cx="10.0001" cy="13.3333" rx="0.833333" ry="0.833333" fill="#282828"/>
<path d="M10.8334 13.3333H9.83341C9.83341 13.2413 9.90803 13.1667 10.0001 13.1667V14.1667V15.1667C11.0126 15.1667 11.8334 14.3459 11.8334 13.3333H10.8334ZM10.0001 14.1667V13.1667C10.0921 13.1667 10.1667 13.2413 10.1667 13.3333H9.16675H8.16675C8.16675 14.3459 8.98756 15.1667 10.0001 15.1667V14.1667ZM9.16675 13.3333H10.1667C10.1667 13.4254 10.0921 13.5 10.0001 13.5V12.5V11.5C8.98756 11.5 8.16675 12.3208 8.16675 13.3333H9.16675ZM10.0001 12.5V13.5C9.90803 13.5 9.83341 13.4254 9.83341 13.3333H10.8334H11.8334C11.8334 12.3208 11.0126 11.5 10.0001 11.5V12.5Z" fill="#282828" mask="url(#path-3-inside-1_139_1302)"/>
</g>
<defs>
<clipPath id="clip0_139_1302">
<rect width="20" height="20" fill="white"/>
</clipPath>
</defs>
</svg>
