<svg width="20" height="20" viewBox="0 0 20 20" fill="none" xmlns="http://www.w3.org/2000/svg">
<path d="M1.66675 14.1667C1.66675 12.5953 1.66675 11.8097 2.1549 11.3215C2.64306 10.8333 3.42873 10.8333 5.00008 10.8333H15.0001C16.5714 10.8333 17.3571 10.8333 17.8453 11.3215C18.3334 11.8097 18.3334 12.5953 18.3334 14.1667C18.3334 15.738 18.3334 16.5237 17.8453 17.0119C17.3571 17.5 16.5714 17.5 15.0001 17.5H5.00008C3.42873 17.5 2.64306 17.5 2.1549 17.0119C1.66675 16.5237 1.66675 15.738 1.66675 14.1667Z" stroke="#282828" stroke-width="1.5"/>
<path d="M1.66675 4.99999C1.66675 3.42864 1.66675 2.64297 2.1549 2.15481C2.64306 1.66666 3.42873 1.66666 5.00008 1.66666H15.0001C16.5714 1.66666 17.3571 1.66666 17.8453 2.15481C18.3334 2.64297 18.3334 3.42864 18.3334 4.99999C18.3334 6.57134 18.3334 7.35701 17.8453 7.84517C17.3571 8.33332 16.5714 8.33332 15.0001 8.33332H5.00008C3.42873 8.33332 2.64306 8.33332 2.1549 7.84517C1.66675 7.35701 1.66675 6.57134 1.66675 4.99999Z" stroke="#282828" stroke-width="1.5"/>
<path d="M9.16675 5H15.0001" stroke="#282828" stroke-width="1.5" stroke-linecap="round"/>
<path d="M5 5H6.66667" stroke="#282828" stroke-width="1.5" stroke-linecap="round"/>
<path d="M9.16675 14.1667H15.0001" stroke="#282828" stroke-width="1.5" stroke-linecap="round"/>
<path d="M5 14.1667H6.66667" stroke="#282828" stroke-width="1.5" stroke-linecap="round"/>
</svg>
