<svg width="12" height="12" viewBox="0 0 12 12" fill="none" xmlns="http://www.w3.org/2000/svg">
<g clip-path="url(#clip0_150_376)">
<path d="M6 11H7.5C9.433 11 11 9.433 11 7.5V6C11 3.64298 11 2.46447 10.2678 1.73223C9.53553 1 8.35702 1 6 1C3.64298 1 2.46447 1 1.73223 1.73223C1 2.46447 1 3.64298 1 6C1 8.35702 1 9.53553 1.73223 10.2678C2.46447 11 3.64298 11 6 11Z" stroke="#616161" stroke-width="1.2"/>
<path d="M7.5 11C7.5 10.0694 7.5 9.60404 7.62236 9.22746C7.86965 8.46636 8.46636 7.86965 9.22746 7.62236C9.60404 7.5 10.0694 7.5 11 7.5" stroke="#616161" stroke-width="1.2"/>
</g>
<defs>
<clipPath id="clip0_150_376">
<rect width="12" height="12" fill="white"/>
</clipPath>
</defs>
</svg>
