<svg width="20" height="20" viewBox="0 0 20 20" fill="none" xmlns="http://www.w3.org/2000/svg">
<path d="M13.6571 2.5L14.4928 3.31312C14.8662 3.67637 15.0528 3.85801 14.9871 4.01234C14.9214 4.16667 14.6574 4.16667 14.1294 4.16667H7.66193C4.35088 4.16667 1.66675 6.77834 1.66675 10C1.66675 11.2393 2.06398 12.3885 2.74133 13.3333" stroke="#282828" stroke-width="1.5" stroke-linecap="round" stroke-linejoin="round"/>
<path d="M6.34297 17.5L5.50729 16.6869C5.13395 16.3236 4.94728 16.142 5.01298 15.9877C5.07868 15.8333 5.34267 15.8333 5.87065 15.8333H12.3382C15.6492 15.8333 18.3333 13.2217 18.3333 9.99999C18.3333 8.76066 17.9361 7.61151 17.2588 6.66666" stroke="#282828" stroke-width="1.5" stroke-linecap="round" stroke-linejoin="round"/>
<path d="M11.3557 9.09921C11.1755 8.43413 10.2585 7.83396 9.15775 8.28296C8.05699 8.73188 7.88214 10.1765 9.54717 10.33C10.2997 10.3993 10.7903 10.2495 11.2395 10.6734C11.6887 11.0972 11.7722 12.276 10.6238 12.5937C9.4755 12.9114 8.33842 12.415 8.2146 11.7101M9.86817 7.49429V8.12796M9.86817 12.6915V13.3276" stroke="#282828" stroke-width="1.25" stroke-linecap="round" stroke-linejoin="round"/>
</svg>
