<svg width="20" height="20" viewBox="0 0 20 20" fill="none" xmlns="http://www.w3.org/2000/svg">
<circle cx="10.0001" cy="4.99999" r="3.33333" stroke="#282828" stroke-width="1.5"/>
<path d="M15 7.50001C16.3807 7.50001 17.5 6.56727 17.5 5.41668C17.5 4.26608 16.3807 3.33334 15 3.33334" stroke="#282828" stroke-width="1.5" stroke-linecap="round"/>
<path d="M5 7.50001C3.61929 7.50001 2.5 6.56727 2.5 5.41668C2.5 4.26608 3.61929 3.33334 5 3.33334" stroke="#282828" stroke-width="1.5" stroke-linecap="round"/>
<ellipse cx="10" cy="14.1667" rx="5" ry="3.33333" stroke="#282828" stroke-width="1.5"/>
<path d="M16.6667 15.8333C18.1286 15.5127 19.1667 14.7009 19.1667 13.75C19.1667 12.7991 18.1286 11.9872 16.6667 11.6667" stroke="#282828" stroke-width="1.5" stroke-linecap="round"/>
<path d="M3.33325 15.8333C1.87138 15.5127 0.833252 14.7009 0.833252 13.75C0.833252 12.7991 1.87138 11.9872 3.33325 11.6667" stroke="#282828" stroke-width="1.5" stroke-linecap="round"/>
</svg>
