<svg width="20" height="20" viewBox="0 0 20 20" fill="none" xmlns="http://www.w3.org/2000/svg">
<path d="M2.08325 5.41665C2.08325 3.8453 2.08325 3.05962 2.57141 2.57147C3.05956 2.08331 3.84524 2.08331 5.41659 2.08331C6.98793 2.08331 7.77361 2.08331 8.26176 2.57147C8.74992 3.05962 8.74992 3.8453 8.74992 5.41665C8.74992 6.98799 8.74992 7.77367 8.26176 8.26182C7.77361 8.74998 6.98793 8.74998 5.41659 8.74998C3.84524 8.74998 3.05956 8.74998 2.57141 8.26182C2.08325 7.77367 2.08325 6.98799 2.08325 5.41665Z" stroke="#282828" stroke-width="1.5"/>
<path d="M11.25 14.5833C11.25 13.012 11.25 12.2263 11.7382 11.7382C12.2263 11.25 13.012 11.25 14.5833 11.25C16.1547 11.25 16.9404 11.25 17.4285 11.7382C17.9167 12.2263 17.9167 13.012 17.9167 14.5833C17.9167 16.1547 17.9167 16.9404 17.4285 17.4285C16.9404 17.9167 16.1547 17.9167 14.5833 17.9167C13.012 17.9167 12.2263 17.9167 11.7382 17.4285C11.25 16.9404 11.25 16.1547 11.25 14.5833Z" stroke="#282828" stroke-width="1.5"/>
<path d="M2.08325 14.5833C2.08325 13.012 2.08325 12.2263 2.57141 11.7382C3.05956 11.25 3.84524 11.25 5.41659 11.25C6.98793 11.25 7.77361 11.25 8.26176 11.7382C8.74992 12.2263 8.74992 13.012 8.74992 14.5833C8.74992 16.1547 8.74992 16.9404 8.26176 17.4285C7.77361 17.9167 6.98793 17.9167 5.41659 17.9167C3.84524 17.9167 3.05956 17.9167 2.57141 17.4285C2.08325 16.9404 2.08325 16.1547 2.08325 14.5833Z" stroke="#282828" stroke-width="1.5"/>
<path d="M11.25 5.41665C11.25 3.8453 11.25 3.05962 11.7382 2.57147C12.2263 2.08331 13.012 2.08331 14.5833 2.08331C16.1547 2.08331 16.9404 2.08331 17.4285 2.57147C17.9167 3.05962 17.9167 3.8453 17.9167 5.41665C17.9167 6.98799 17.9167 7.77367 17.4285 8.26182C16.9404 8.74998 16.1547 8.74998 14.5833 8.74998C13.012 8.74998 12.2263 8.74998 11.7382 8.26182C11.25 7.77367 11.25 6.98799 11.25 5.41665Z" stroke="#282828" stroke-width="1.5"/>
</svg>
