<svg width="20" height="20" viewBox="0 0 20 20" fill="none" xmlns="http://www.w3.org/2000/svg">
<circle cx="10" cy="10" r="2.5" stroke="#282828" stroke-width="1.5"/>
<path d="M11.471 1.79354C11.1648 1.66667 10.7765 1.66667 9.99991 1.66667C9.22334 1.66667 8.83505 1.66667 8.52877 1.79354C8.12039 1.9627 7.79593 2.28715 7.62678 2.69553C7.54956 2.88196 7.51934 3.09876 7.50751 3.415C7.49013 3.87974 7.2518 4.30992 6.84904 4.54245C6.44628 4.77498 5.95458 4.76629 5.54341 4.54897C5.26362 4.40109 5.06076 4.31886 4.8607 4.29252C4.42245 4.23482 3.97924 4.35358 3.62855 4.62267C3.36554 4.82449 3.1714 5.16075 2.78311 5.83328C2.39483 6.50581 2.20069 6.84207 2.15741 7.17076C2.09972 7.60901 2.21848 8.05222 2.48757 8.40291C2.61039 8.56297 2.783 8.69753 3.05091 8.86586C3.44475 9.11333 3.69816 9.53489 3.69813 10C3.69811 10.4651 3.44471 10.8866 3.05091 11.134C2.78296 11.3024 2.61032 11.437 2.48748 11.597C2.21839 11.9477 2.09964 12.3909 2.15733 12.8292C2.2006 13.1579 2.39475 13.4941 2.78303 14.1667C3.17132 14.8392 3.36546 15.1755 3.62847 15.3773C3.97915 15.6464 4.42237 15.7651 4.86062 15.7074C5.06066 15.6811 5.26352 15.5989 5.54328 15.451C5.95448 15.2337 6.44622 15.225 6.849 15.4575C7.25178 15.6901 7.49013 16.1203 7.50751 16.5851C7.51934 16.9013 7.54956 17.1181 7.62678 17.3045C7.79593 17.7129 8.12039 18.0373 8.52877 18.2065C8.83505 18.3333 9.22334 18.3333 9.99991 18.3333C10.7765 18.3333 11.1648 18.3333 11.471 18.2065C11.8794 18.0373 12.2039 17.7129 12.373 17.3045C12.4503 17.118 12.4805 16.9012 12.4923 16.585C12.5097 16.1203 12.748 15.6901 13.1507 15.4575C13.5535 15.225 14.0453 15.2336 14.4565 15.451C14.7362 15.5988 14.9391 15.681 15.1391 15.7074C15.5774 15.7651 16.0206 15.6463 16.3713 15.3772C16.6343 15.1754 16.8284 14.8391 17.2167 14.1666C17.605 13.4941 17.7991 13.1578 17.8424 12.8291C17.9001 12.3909 17.7813 11.9477 17.5123 11.597C17.3894 11.4369 17.2168 11.3024 16.9489 11.134C16.555 10.8866 16.3017 10.465 16.3017 9.99993C16.3017 9.53488 16.5551 9.11341 16.9489 8.866C17.2168 8.69763 17.3895 8.56305 17.5123 8.40296C17.7814 8.05228 17.9002 7.60906 17.8425 7.17082C17.7992 6.84213 17.6051 6.50587 17.2168 5.83334C16.8285 5.16081 16.6344 4.82455 16.3713 4.62273C16.0207 4.35364 15.5774 4.23488 15.1392 4.29258C14.9392 4.31891 14.7363 4.40114 14.4565 4.549C14.0453 4.76633 13.5536 4.77502 13.1508 4.54247C12.748 4.30993 12.5097 3.87972 12.4923 3.41495C12.4805 3.09874 12.4503 2.88195 12.373 2.69553C12.2039 2.28715 11.8794 1.9627 11.471 1.79354Z" stroke="#282828" stroke-width="1.5"/>
</svg>
